<svg width="96" height="128" viewBox="0 0 96 128" fill="none" xmlns="http://www.w3.org/2000/svg">
  <path d="M80.8 7.5C50.7 12.9 21.8 37.7 15.2 67.1C8.3 97.5 29.5 118.6 55.7 108.2C83.2 97.3 93.3 55.2 80.8 7.5Z" fill="#2FBF71"/>
  <path d="M80.8 7.5C58.3 33.3 40.3 59.8 22.8 111.1" stroke="#0E5F45" stroke-width="3.4" stroke-linecap="round"/>
  <path d="M59.8 31.5C48.9 34.5 38.9 40.8 30.6 49.3" stroke="#0E5F45" stroke-opacity=".42" stroke-width="2.2" stroke-linecap="round"/>
  <path d="M68.5 51.1C55.2 54.4 43.7 61.9 34.1 72.2" stroke="#0E5F45" stroke-opacity=".42" stroke-width="2.2" stroke-linecap="round"/>
  <path d="M66.5 73.9C53.2 76.3 43.2 82.1 31.8 94.9" stroke="#0E5F45" stroke-opacity=".42" stroke-width="2.2" stroke-linecap="round"/>
  <path d="M47.4 21.8C50.3 33.8 50.8 45.9 48.1 58.2" stroke="#0E5F45" stroke-opacity=".35" stroke-width="2" stroke-linecap="round"/>
  <path d="M35.8 38.8C39.6 51 40.8 64.6 37.9 78.8" stroke="#0E5F45" stroke-opacity=".35" stroke-width="2" stroke-linecap="round"/>
  <path d="M24.9 58.7C30.6 71.6 31.9 85.5 28.7 101.3" stroke="#0E5F45" stroke-opacity=".35" stroke-width="2" stroke-linecap="round"/>
</svg>
