<svg width="380" height="250" viewBox="0 0 380 250" fill="none" xmlns="http://www.w3.org/2000/svg">
  <rect width="380" height="250" fill="#050505"/>
  <path d="M69 111C101 65 160 50 217 67C259 79 287 105 312 127" stroke="#7A6048" stroke-width="6" stroke-linecap="round"/>
  <path d="M63 112C111 139 179 149 243 136C279 129 310 119 333 102" stroke="#7A6048" stroke-width="5" stroke-linecap="round"/>
  <circle cx="125" cy="106" r="10" fill="#F18C43"/>
  <path d="M125 119V154M107 132H143M113 181L125 154L138 181" stroke="#F18C43" stroke-width="8" stroke-linecap="round"/>
  <circle cx="170" cy="95" r="12" fill="#13B5A9"/>
  <path d="M170 110V154M149 127H191M156 183L170 154L184 183" stroke="#13B5A9" stroke-width="9" stroke-linecap="round"/>
  <circle cx="216" cy="106" r="10" fill="#E84799"/>
  <path d="M216 119V154M198 132H234M204 181L216 154L229 181" stroke="#E84799" stroke-width="8" stroke-linecap="round"/>
  <ellipse cx="81" cy="91" rx="15" ry="7" fill="#F5C02E" transform="rotate(-12 81 91)"/>
  <ellipse cx="104" cy="64" rx="12" ry="7" fill="#12A6A6" transform="rotate(-23 104 64)"/>
  <ellipse cx="145" cy="51" rx="7" ry="13" fill="#F18C43" transform="rotate(-25 145 51)"/>
  <ellipse cx="201" cy="48" rx="14" ry="7" fill="#A6CE39" transform="rotate(-36 201 48)"/>
  <ellipse cx="250" cy="63" rx="12" ry="7" fill="#F7AA56" transform="rotate(15 250 63)"/>
  <ellipse cx="303" cy="88" rx="15" ry="7" fill="#F18C43" transform="rotate(-9 303 88)"/>
  <ellipse cx="272" cy="154" rx="14" ry="7" fill="#EF476F" transform="rotate(-11 272 154)"/>
  <ellipse cx="238" cy="172" rx="14" ry="7" fill="#F7AA56" transform="rotate(-19 238 172)"/>
  <ellipse cx="105" cy="158" rx="13" ry="7" fill="#EF476F" transform="rotate(16 105 158)"/>
  <ellipse cx="62" cy="126" rx="15" ry="7" fill="#F5C02E" transform="rotate(3 62 126)"/>
  <text x="190" y="222" fill="#7A6048" font-family="Verdana, Arial, sans-serif" font-size="31" text-anchor="middle" letter-spacing="1">ALDEA LAS NUBES</text>
</svg>
